<?xml version="1.0" encoding="utf-8"?>
<!-- Generator: Adobe Illustrator 26.0.1, SVG Export Plug-In . SVG Version: 6.00 Build 0)  -->
<svg version="1.1" id="flag-icons-cn" xmlns="http://www.w3.org/2000/svg" xmlns:xlink="http://www.w3.org/1999/xlink" x="0px"
	 y="0px" viewBox="0 0 48 48" style="enable-background:new 0 0 48 48;" xml:space="preserve">
<style type="text/css">
	.st0{fill:#DE2910;}
	.st1{fill:#FFDE00;}
</style>
<circle class="st0" cx="24" cy="24" r="24"/>
<polygon class="st1" points="16.4,16.1 20.9,13.2 15.4,13.2 13.7,8.1 11.9,13.2 6.6,13.2 10.7,16.1 8.7,21 13.6,18.1 18.1,21 "/>
<polygon class="st1" points="26.5,9 28.3,8.6 26.5,7.7 26.6,6 25.5,7.3 23.9,6.4 24.9,8 23.6,9.4 25.5,9.1 26.3,10.5 "/>
<polygon class="st1" points="30.9,13.9 32.6,14.4 31.4,13 32.1,11.2 30.6,12.1 29.4,10.7 29.7,12.5 28.2,13.4 29.9,13.7 30.2,15.5 
	"/>
<polygon class="st1" points="31.3,20.5 32.7,19.3 31,19.3 30.4,17.6 29.9,19.5 28.2,19.5 29.6,20.6 29.2,22.3 30.4,21.2 31.9,22.3 
	"/>
<polygon class="st1" points="26.3,25.6 28.2,25 26.5,24.4 26.6,22.6 25.5,24 23.9,23.5 24.8,25 23.6,26.3 25.2,25.9 26.2,27.4 "/>
</svg>
