<?xml version="1.0" encoding="utf-8"?>
<!-- Generator: Adobe Illustrator 26.0.1, SVG Export Plug-In . SVG Version: 6.00 Build 0)  -->
<svg version="1.1" id="Layer_1" xmlns="http://www.w3.org/2000/svg" xmlns:xlink="http://www.w3.org/1999/xlink" x="0px" y="0px"
	 viewBox="0 0 48 48" style="enable-background:new 0 0 48 48;" xml:space="preserve">
<style type="text/css">
	.st0{fill:#012169;}
	.st1{fill:#C8102E;}
	.st2{fill:#D80027;}
</style>
<path class="st0" d="M9.4,43c2.4,1.9,5.3,3.3,8.3,4.1V34.7L9.4,43z"/>
<path class="st0" d="M43,38.6c1.9-2.4,3.3-5.3,4.1-8.3H34.7L43,38.6z"/>
<path class="st0" d="M30.3,47.2c3.1-0.8,5.9-2.3,8.3-4.1l-8.3-8.3V47.2z"/>
<path class="st0" d="M17.7,0.8C14.6,1.7,11.8,3.1,9.4,5l8.3,8.3V0.8z"/>
<path class="st0" d="M0.8,30.3c0.8,3.1,2.3,5.9,4.1,8.3l8.3-8.3H0.8z"/>
<path class="st0" d="M47.2,17.7c-0.8-3.1-2.3-5.9-4.1-8.3l-8.3,8.3H47.2z"/>
<path class="st0" d="M38.6,5c-2.4-1.9-5.3-3.3-8.3-4.1v12.5L38.6,5z"/>
<path class="st0" d="M5,9.4c-1.9,2.4-3.3,5.3-4.1,8.3h12.5L5,9.4z"/>
<path class="st1" d="M27.1,20.8V0.2c-1-0.1-2-0.2-3.1-0.2s-2.1,0.1-3.1,0.2v20.7H0.2c-0.1,1-0.2,2-0.2,3.1c0,1.1,0.1,2.2,0.2,3.2
	h20.7v20.6c1,0.1,2,0.2,3.1,0.2c1.1,0,2.2-0.1,3.2-0.2V27.1h20.6c0.1-1,0.2-2,0.2-3.1c0-1.1-0.1-2.2-0.2-3.2H27.1z"/>
<path class="st2" d="M33.2,30.3h-2.9L41,41c0.5-0.5,0.9-1,1.4-1.5L33.2,30.3z"/>
<path class="st2" d="M8.5,42.4l9.2-9.2v-2.9L7,41C7.5,41.5,8,41.9,8.5,42.4z"/>
<path class="st2" d="M5.6,8.5l9.2,9.2h3L7,7C6.6,7.5,6.1,8,5.6,8.5z"/>
<path class="st2" d="M39.5,5.6l-9.2,9.2v3L41,7C40.5,6.6,40,6.1,39.5,5.6z"/>
</svg>
