<?xml version="1.0" encoding="utf-8"?>
<!-- Generator: Adobe Illustrator 26.0.1, SVG Export Plug-In . SVG Version: 6.00 Build 0)  -->
<svg version="1.1" id="Layer_1" xmlns="http://www.w3.org/2000/svg" xmlns:xlink="http://www.w3.org/1999/xlink" x="0px" y="0px"
	 viewBox="0 0 48 48" style="enable-background:new 0 0 48 48;" xml:space="preserve">
<style type="text/css">
	.st0{fill:#FFFFFF;filter:url(#Adobe_OpacityMaskFilter);}
	.st1{mask:url(#a_00000167387259392873061640000013580548139034783927_);}
	.st2{fill:#FFFFFF;}
	.st3{fill:#012169;}
	.st4{fill:#C8102E;}
	.st5{fill:#D80027;}
</style>
<defs>
	<filter id="Adobe_OpacityMaskFilter" filterUnits="userSpaceOnUse" x="0" y="0" width="48" height="48">
		<feColorMatrix  type="matrix" values="1 0 0 0 0  0 1 0 0 0  0 0 1 0 0  0 0 0 1 0"/>
	</filter>
</defs>
<mask maskUnits="userSpaceOnUse" x="0" y="0" width="48" height="48" id="a_00000167387259392873061640000013580548139034783927_">
	<circle class="st0" cx="24" cy="24" r="24"/>
</mask>
<g class="st1">
	<path class="st2" d="M0,0h4.4l7.2,2l6.1-2h3.1l3.2,1.6L27.1,0h3.1l6.6,2.1L43.6,0h1.5l1.1,0.7L48,0v4.4l-1.9,7.3l1.9,6v3.1
		l-1.5,2.9l1.5,3.4v3.1l-1.4,6.4l1.4,6.9v1.5l-0.7,1L48,48h-4.4l-6.7-1.6L30.3,48h-3.1l-2.8-1.8L20.9,48h-3.1l-6-1.9L4.4,48H2.9
		l-1-0.8L0,48v-4.4l2.1-7.4L0,30.3v-3.1l2.4-3L0,20.9v-3.1l2.1-6.1L0,4.4V2.9l0.8-0.7L0,0z"/>
	<path class="st3" d="M4.4,0l13.3,13.3V0H4.4z M30.3,0v13.3L43.6,0H30.3z M0,4.4v13.3h13.3L0,4.4z M48,4.4L34.7,17.7H48V4.4z
		 M0,30.3v13.3l13.3-13.3H0z M34.7,30.3L48,43.6V30.3H34.7z M17.7,34.7L4.4,48h13.3V34.7z M30.3,34.7V48h13.3L30.3,34.7z"/>
	<path class="st4" d="M20.9,0v20.9H0v6.3h20.9V48h6.3V27.1H48v-6.3H27.1V0H20.9L20.9,0z"/>
	<path class="st5" d="M0,0v2.9l14.8,14.8h3L0,0z M45.1,0L30.3,14.8v3L48,0H45.1z M17.7,30.3L0,48h2.9l14.8-14.8V30.3z M30.3,30.3
		L48,48h0v-2.9L33.2,30.3H30.3z"/>
</g>
</svg>
