<svg xmlns="http://www.w3.org/2000/svg" viewBox="0 0 48 48" xmlns:v="https://vecta.io/nano"><defs><filter id="A" filterUnits="userSpaceOnUse" x="0" y="0" width="48" height="48"><feColorMatrix values="1 0 0 0 0  0 1 0 0 0  0 0 1 0 0  0 0 0 1 0"/></filter></defs><mask maskUnits="userSpaceOnUse" x="0" y="0" width="48" height="48" id="B"><circle cx="24" cy="24" r="24" fill="#fff" filter="url(#A)"/></mask><g mask="url(#B)"><path d="M4.4 0l13.3 13.3V0H4.4zm25.9 0v13.3L43.6 0H30.3zM0 4.4v13.3h13.3L0 4.4zm48 0L34.7 17.7H48V4.4zM0 30.3v13.3l13.3-13.3H0zm34.7 0L48 43.6V30.3H34.7zm-17 4.4L4.4 48h13.3V34.7zm12.6 0V48h13.3L30.3 34.7z" fill="#0052b4"/><path d="M20.9 0v20.9H0v6.3h20.9V48h6.3V27.1H48v-6.3H27.1V0h-6.2 0zM0 0v2.9l14.8 14.8h3L0 0zm45.1 0L30.3 14.8v3L48 0h-2.9zM17.7 30.3L0 48h2.9l14.8-14.8v-2.9zm12.6 0L48 48h0v-2.9L33.2 30.3h-2.9z" fill="#d80027"/></g></svg>