<svg xmlns="http://www.w3.org/2000/svg" viewBox="0 0 48 48" xmlns:v="https://vecta.io/nano"><defs><filter id="A" filterUnits="userSpaceOnUse" x="0" y="0" width="48" height="48"><feColorMatrix values="1 0 0 0 0  0 1 0 0 0  0 0 1 0 0  0 0 0 1 0"/></filter></defs><mask maskUnits="userSpaceOnUse" x="0" y="0" width="48" height="48" id="B"><circle cx="24" cy="24" r="24" fill="#fff" filter="url(#A)"/></mask><g mask="url(#B)"><path d="M15.7,0H0v48h15.7" fill="#6da544"/><path d="M48,0H15.7v48H48V0z" fill="#d80027"/><circle cx="15.7" cy="24" r="8.3" fill="#ffda44"/><path d="M11 19.8V25c0 2.6 2.1 4.7 4.7 4.7s4.7-2.1 4.7-4.7v-5.2H11h0z" fill="#d80027"/><path d="M15.7 26.6a1.58 1.58 0 0 1-1.6-1.6v-2h3.1v2c0 .9-.7 1.6-1.5 1.6h0z" fill="#eee"/></g></svg>