<?xml version="1.0" encoding="utf-8"?>
<!-- Generator: Adobe Illustrator 26.0.1, SVG Export Plug-In . SVG Version: 6.00 Build 0)  -->
<svg version="1.1" id="Layer_1" xmlns:v="https://vecta.io/nano"
	 xmlns="http://www.w3.org/2000/svg" xmlns:xlink="http://www.w3.org/1999/xlink" x="0px" y="0px" viewBox="0 0 48 48"
	 style="enable-background:new 0 0 48 48;" xml:space="preserve">
<style type="text/css">
	.st0{fill:#d52b1e;}
	.st1{fill:#0039a6;}
	.st2{fill:#ffffff;}
</style>
<g>
	<path class="st0" d="M24,48c10.4,0,19.3-6.7,22.6-16H1.4C4.7,41.3,13.6,48,24,48z"/>
	<path class="st1" d="M0,24c0,2.8,0.5,5.5,1.4,8h45.2c0.9-2.5,1.4-5.2,1.4-8c0-2.8-0.5-5.5-1.4-8H1.4C0.5,18.5,0,21.2,0,24z"/>
	<path class="st2" d="M1.4,16h45.2C43.3,6.7,34.4,0,24,0C13.6,0,4.7,6.7,1.4,16z"/>
</g>
</svg>
