<?xml version="1.0" encoding="utf-8"?>
<!-- Generator: Adobe Illustrator 26.0.1, SVG Export Plug-In . SVG Version: 6.00 Build 0)  -->
<svg version="1.1" id="Layer_1" xmlns="http://www.w3.org/2000/svg" xmlns:xlink="http://www.w3.org/1999/xlink" x="0px" y="0px"
	 viewBox="0 0 960 1440" style="enable-background:new 0 0 960 1440;" xml:space="preserve">
<style type="text/css">
	.st0{fill:none;stroke:#E52421;stroke-miterlimit:10;}
</style>
<g id="mesh-02">
	<g>
		<g>
			<path class="st0" d="M0,144c63.7,3.1,124.8,27.3,183.7,49.9c67.3,25.7,133.6,54,201.7,77.5c74.5,25.7,197.1,72.6,256.9-3.3
				c78-99,197-123.1,317.7-124c-1.6,476.4-1.1,952.9,0,1429.3c-320-0.6-640-0.4-960,0C-1.2,1096.9-1.6,620.4,0,144z"/>
			<path class="st0" d="M-0.1,1516.1c66.1-10.4,133-14.7,199.6-19.8c28.1-2.2,56.1-4.4,84.1-7.3c28.9-2.9,59-10.1,88-8.4
				c195.8,11.4,394,5.7,588.3,35.4"/>
			<path class="st0" d="M-0.2,1458.9c49.1-17.3,101.8-22.2,153.1-28.7c22.9-2.9,45.8-6,68.5-10.5c23.4-4.6,47.4-15.7,70.9-13
				c222.6,25.9,447.7-0.4,667.6,52.1"/>
			<path class="st0" d="M-0.3,1401.7c36.8-20.6,80.4-23.6,121.5-28.6c19.4-2.4,38.9-4.9,57.9-9.7c20.8-5.3,37.4-16.3,58.9-14.4
				c110.2,9.8,218.8,10.5,329.4,9.4c133.1-1.4,263.8,5.6,392.3,43.2"/>
			<path class="st0" d="M-0.3,1344.5c29.9-22.5,71.2-19.8,106.5-21.1c15.7-0.6,31.7-1.3,47.1-4.8c7.2-1.6,14.4-3.7,21.2-6.8
				c12.4-5.7,16.8-7.9,31.9-6.8c115.6,9.2,228.2,4.8,343.8-1.6c139.7-7.8,275.5-3.5,409.4,40.9"/>
			<path class="st0" d="M-0.4,1287.3c26.7-22.1,69.3-10.6,100.2-6.8c14.8,1.9,30.1,3.8,45,2.2c6.6-0.7,13.3-1.8,19.5-4.3
				c11.8-4.8,16.2-6.8,30.5-5.8c118.1,7.9,231.8-4.2,349-17.8c142.4-16.5,279.3-16.9,415.8,32.3"/>
			<path class="st0" d="M-0.4,1230.2c28.1-20,75.4,3.8,103.7,12.8c15.3,4.9,31,10.1,47.1,11.4c17.9,1.5,32.6-5.8,50.3-5
				c118.5,5.7,230.5-16.1,346.3-38.2c62.2-11.9,125.1-22.2,188.6-23.1c77.7-1.1,151.8,13.9,224.1,41.8"/>
			<path class="st0" d="M-0.4,1173.1c33.8-15.7,86.5,22,115.5,36.3c17,8.4,34.3,17.2,52.7,22.3c18.6,5.2,34.5,1.1,53.4,1.6
				c117.1,2.8,225.4-30,336.8-61.9c59.6-17,120.2-32.4,182.2-36.6c76.4-5.2,148.8,9.1,219.4,37.9"/>
			<path class="st0" d="M-0.3,1115.9c21.1-4.2,44.2,9.1,62.1,18.7c24.8,13.3,48.3,29,72.1,43.8c19.8,12.3,39.8,24.9,61.1,34.3
				c20.5,9,36.8,9.2,58.9,9.1c114.6-0.6,217.3-45.7,321.8-87.6c55.8-22.4,112.9-43.3,172.7-51.4c73.7-10,143.4,3.4,211.2,32.8"/>
			<path class="st0" d="M-0.3,1058.8c26.3,0,52.4,17.9,73.7,31.4c29,18.3,56.6,38.8,84.6,58.6c41.3,29.2,85.2,65.9,138.2,63.8
				c111.3-4.4,207.2-62.8,302.4-114.4c51-27.6,103.7-54.4,160.8-66.7c70-15.2,136-2.7,200.3,26.9"/>
			<path class="st0" d="M-0.3,1001.6c31.9,4.4,61.5,26.3,87.4,44.1c33.8,23.3,66.2,48.7,98.9,73.4c42.9,32.4,101.4,88.8,159.3,84.3
				c107.6-8.3,195.7-81,279.9-141.3c45.5-32.6,93.1-65.2,147-82.1c65.3-20.5,127.2-8.8,187.5,21.1"/>
			<path class="st0" d="M-0.2,944.5c37.4,7.5,72.1,34.5,102.3,56.2c39,28,76.5,58.2,114.4,87.7c31.8,24.7,63.7,49.5,97.5,71.4
				c25.1,16.3,53.6,36,84.6,32.4c103.8-12.1,183.3-100,255.5-167.1c39.8-37,81.7-75.3,132.2-96.9c60-25.6,117.5-14.4,173.4,15.8"/>
			<path class="st0" d="M-0.2,887.3c42.6,10.5,81.5,40.6,116.3,65.8c44,31.8,86.2,66,128.9,99.5c37.6,29.5,75.4,59.2,115.4,85.5
				c25.3,16.6,61.4,44.6,93.4,38.3c102.4-20.1,170-119.3,232.7-193.9c32.3-38.5,66.4-79.1,110.2-105c55.7-32.9,109.8-22.9,163.2,9.3
				"/>
			<path class="st0" d="M-0.1,830.2c48,12.7,91.7,45.8,131.2,74.3c49.2,35.4,96.6,73.3,144.4,110.5c42.2,32.9,84.6,65.8,129.4,95.1
				c26.1,17.1,69.8,51.7,102.9,43.5c98.9-24.5,156.2-136.8,207.6-214.9c27.3-41.4,55.8-86.1,96-116.2c49.9-37.4,99.7-26.3,148.5,7"
				/>
			<path class="st0" d="M-0.1,773c52.4,15.8,98.9,47.8,143.4,79c53.6,37.6,105.2,78.1,157.2,117.8c46.3,35.3,92.8,70.7,141.6,102.4
				c28.9,18.8,79.5,58,116.1,49.6c43.2-9.9,77-50,101.2-84.4c31.8-45,55.8-95,81.2-143.7c23.5-45,47.4-95.3,85.7-129.8
				c44.3-39.9,90.4-25.6,133.6,8.4"/>
			<path class="st0" d="M0,715.8c58.8,16,111.2,51.3,161,85.3c57.2,39,112.3,81,167.9,122.1c51.3,37.9,102.7,75.9,157.2,109.1
				c29.8,18.2,79.9,54.9,116.3,46.3c41-9.7,71.1-52.8,91.2-86.6c28.2-47.2,48.2-98.8,69.4-149.4c19.5-46.5,38.4-98.3,72.1-136.8
				c40.3-45.9,84.8-27.5,124.8,9.2"/>
			<path class="st0" d="M0,658.7c60.7,13.4,115.1,47.9,166.7,81.2C228.8,780,288.6,823.8,349,866.6
				c53.3,37.8,106.9,75.6,163.5,108.4c31.8,18.4,86.7,56,125.4,46.9c38.9-9.2,65.4-51.6,82.7-84.2c27.5-52,45.2-108.7,64.5-164.1
				c15.7-45,30.4-97.5,61.4-134.9c38.3-46,80-16.9,113.5,19.2"/>
			<path class="st0" d="M0,601.4c63.2,9.2,120.9,43.5,174.7,76.1c65.4,39.6,128.2,83.3,191.7,125.8C420,839.2,474,875.1,531,905.6
				c34.6,18.5,89.5,52,130.7,43.1c39-8.5,63.2-49.6,79.1-82.6c24.5-50.8,39.5-105.9,55.8-159.8c13.9-45.8,25.8-103.3,58-140.4
				c37.9-43.8,79.2,1.8,105.3,34.7"/>
			<path class="st0" d="M0,544.2c61.9,3.6,119.7,34.8,172.9,64.3c65.4,36.4,128.2,77.4,191.6,117.2c56.1,35.2,112.5,70.6,172.1,99.5
				c38.7,18.8,89.9,44.3,134.5,37c39.6-6.5,62.9-46.4,78.5-79.5c22.9-48.7,36.5-101.4,51.6-152.9c12.6-43.3,23.4-97.6,53.6-132.8
				c38.9-45.4,82.9,15.5,105.2,46.5"/>
			<path class="st0" d="M0,487.1c63,7.8,121,42.9,174.5,74.9c60.4,36.1,118.8,75.6,177.8,113.8c55.5,35.9,111.6,72.2,171.3,100.9
				c33.5,16,80.3,39.2,118.6,28.6c38-10.5,62.4-48.7,79.7-81.4c24.2-45.6,40.6-94.9,58.8-143c15.8-41.8,31.4-92.4,64-124.7
				c40.9-40.3,84.4-3.1,115.2,30.3"/>
			<path class="st0" d="M-0.1,429.9c55,11.4,104.6,45.1,150.8,75.5c58.3,38.4,114.7,79.8,171.9,119.7
				c48.6,33.9,97.6,68.1,150.2,95.8c30.9,16.3,73.3,39.3,109,26.1c38.4-14.2,66.1-50.1,87.8-83c27.9-42.2,49.6-88.2,73.4-132.7
				c21.9-41,45.3-86.8,82.5-116c45.5-35.8,92.4-17.6,134.4,14.1"/>
			<path class="st0" d="M-0.2,372.8c50.6,12.6,97.5,52.9,138.5,83.2c51.9,38.5,102.4,78.9,153.9,117.9c42.2,32,85,64.4,131.3,90.3
				c27.7,15.5,58.9,32.7,90.1,18.6c160.8-72.3,224.8-419,446.1-310.5"/>
			<path class="st0" d="M-0.2,315.6c44.7,14.9,85.4,52.5,121.7,81.1c49,38.6,96.8,78.6,145.8,117.2c38.6,30.4,77.8,61.6,121,85.4
				c26.5,14.6,46.1,22.7,73.6,8.4c173.2-90.2,264.7-361.8,498-292.4"/>
			<path class="st0" d="M-0.2,258.4c44.6,14.2,85.3,50.6,122.1,78.2c48.9,36.7,96.8,74.7,146.2,110.8
				c35.9,26.2,72.9,53.8,113.6,72.3c11.4,5.2,25.2,11.7,38.2,11.4s19.7-7.8,30.2-14.5c74.7-47.9,137.2-110.1,206.9-164.7
				c89.8-70.4,187.3-112.4,302.9-93.7"/>
			<path class="st0" d="M-0.2,201.2c49.6,8.6,97.6,42.6,139.8,67.8c54.1,32.4,107.2,66.5,162.1,97.5c39.5,22.4,81.4,46.4,125.8,57.6
				c13.6,3.4,29,6.6,43,3.3c14.1-3.3,21-13.7,31.7-22.4c56.6-46.5,116-93.3,178.3-131.9c85.6-53,178.5-78.6,279.4-72"/>
			<path class="st0" d="M922.8,144.8c-30.3,114.9-2.7,225,0.5,340.6c3.2,115.9-3.9,232.3-11.1,347.9
				c-15.4,247.8-30.2,493.4,9.3,739.9"/>
			<path class="st0" d="M888,147.2c-29,58.4-36.8,117.6-24.8,181.6c8.8,46.8,26,92.1,29.5,139.9c8.7,118.2-8.5,241.3-23.8,358.4
				c-14.1,108.5-31.2,216.9-36.3,326.4c-6.6,142.6,11,282.8,50.3,419.9"/>
			<path class="st0" d="M855.6,151.1c-35.7,52.8-54.1,109.8-38.8,173c10.2,41.8,31.8,79.5,44.1,120.6c13.1,43.6,7.8,91.1,5.1,135.9
				c-3,49-8.5,97.7-16.2,146.1c-13,82.2-32.5,163.1-49.6,244.5c-17.5,83.3-31.3,167.7-30.8,253.1c0.7,120.7,30.7,237.2,75,348.9"/>
			<path class="st0" d="M825.4,156.7c-44.4,55.8-72.5,118.5-48.7,189.2c14.4,42.8,42.7,78.9,60,120.3c17.9,42.9,11,91.6,7.2,136.8
				c-4.1,48.9-11.6,97.4-22.1,145.3C804,829.6,776.6,908.1,752,987.5c-23.6,76.2-42.6,154-42.9,234.2c-0.5,124,42.4,241.7,97,351.4"
				/>
			<path class="st0" d="M797.3,163.8c-51.4,58.8-90,128.3-59.7,206.5c18.5,47.6,54.4,84.9,77.7,129.8c23,44.5,14.5,96.6,9,144.6
				s-15.2,95.5-28.8,141.8c-22.9,77.9-58,150.7-90.3,224.8c-30.1,69.1-55,140.6-55.6,216.8c-1,124.2,56.1,240.6,118.1,345"/>
			<path class="st0" d="M771.2,172.5C711.7,237,662.9,316,701.5,403.9c22.6,51.4,64.3,89.9,92.9,137.4c28,46.5,19.2,99.3,11.8,150.9
				c-7,48.3-19.1,95.8-36.4,141.4c-27.6,72.4-69,137.2-108.8,203.2c-36.7,60.9-69.2,125.1-70.7,197.7
				c-2.6,124.1,71.3,240.4,138.7,338.6"/>
			<path class="st0" d="M747,182.8c-67,69.9-126.3,158.5-81.2,256.1c26.9,58.2,77,99.9,111.1,153.2c30,46.9,21.3,99.5,12.3,152
				c-8.2,48-22.5,94.8-43.4,138.8c-32.6,69-81.1,126.5-129.2,185c-41.7,50.7-82.4,105.7-85.2,173.9c-5,123,88.4,240.3,159.1,331.2"
				/>
			<path class="st0" d="M724.6,194.7c-74.5,75.3-144.9,173.5-93.8,281c30.3,63.8,86.7,108.2,126,165.6c15.2,22.2,25.8,44.6,25,71.8
				c-0.8,28.5-4.6,57.3-10.2,85.3c-9.7,48.9-26.8,96.2-52.1,139.3c-38.3,65.3-93.9,115-149.8,164.8c-44.4,39.5-93.3,84.2-97.4,147.6
				c-2.8,42.6,13.6,84.4,32.8,121.6c38.2,73.9,92.8,139,146.9,201.4"/>
			<path class="st0" d="M703.8,208.2c-83,81.1-166,190.1-106,308.6C632,584.3,693.7,630.5,737,691.4c16.3,23,28,46.7,26.9,75.3
				c-1.1,28.8-5.3,57.9-11.7,86c-10.8,47.1-29.3,92.3-56.8,132.2c-43.9,63.8-106.8,107-170.9,148.3
				c-45.2,29.2-105.2,63.5-111.5,122.9c-4.4,41.1,16,81.8,36.4,115.9c44.4,74.1,105,138.6,164.2,200.8"/>
			<path class="st0" d="M684.5,223.3c-88.2,82.7-185.8,198.8-124,325C597.1,623,667,671.2,715.2,737.1c17.1,23.5,29,47.5,27.9,77
				c-1.1,28.9-5.8,58.3-12.9,86.4c-11.9,47.7-32.9,93-64,131.3c-49.1,60.7-117.9,96.8-187.5,129c-44.5,20.6-118.8,45-126.3,102
				c-4.9,36.7,17.3,73.8,36.7,103C440.2,1443,509,1509,575.1,1573"/>
			<path class="st0" d="M666.7,240c-95.8,85.5-211.4,211.4-139.1,346.8c39.8,74.7,112.4,121.6,162.6,187.8
				c17.7,23.3,29.6,47.1,28,76.9c-1.5,29.4-6.1,59.1-13.7,87.5c-13,48.7-36.2,94.4-70.7,131.4c-54.9,59.1-130.4,89.1-205.5,113.6
				c-41.6,13.6-129.2,28.4-137.6,82.3c-5.6,35.7,22.3,72.7,42.3,99.1c58.2,77.1,132.3,142.9,203.6,207.5"/>
			<path class="st0" d="M650.2,258.2c-97,81.4-233.2,209.7-163.6,349.2c39.2,78.5,117.6,124,171.9,190c19,23.1,31.3,46.6,29.6,77.1
				c-1.7,31.3-6.5,62.7-15.1,92.8c-13.8,48.5-38.4,93.5-74.5,128.9c-60.2,59-142.3,84.4-222.5,102.7c-32.8,7.5-66.4,13.2-98.3,24.2
				c-20.6,7.1-46,18-50.3,42.1c-6.1,34.3,27.5,71.9,47.3,95.5c65.7,78.5,146,145.7,223.4,212.1"/>
			<path class="st0" d="M632.7,280.1c-96,76-250.2,205.9-179.8,345.7c38.5,76.5,117,118.1,171.2,181.2c19.5,22.6,29.2,43.9,27.6,74
				c-1.8,32.1-6.7,64.2-15.6,95.1c-14.3,49.3-40.1,94.8-77.8,130c-63.3,59-149.2,82-232,97.7c-33.8,6.4-68.5,10.8-101.5,20.9
				c-19.9,6-45.7,15.5-49.4,38.9c-5.5,34.7,32.2,73.4,52.5,96.2c69.5,78.4,152,146.1,232,213.2"/>
			<path class="st0" d="M601.9,300.4c-91.5,73.4-232.7,195.2-168.6,328.1c34.1,70.8,104,111.7,151.3,171.9
				c37.1,47.2,23.7,109.3,8.2,163.3c-13.5,46.8-36.8,90.4-70.9,125.4c-57.9,59.3-137.5,86.6-215.7,107.4
				c-39.4,10.5-133.6,20.3-142.2,72.3c-5.6,34,24.2,70.2,43.6,94.5c61.9,77.9,139.5,144.2,214,209.6"/>
			<path class="st0" d="M561.3,308.1C474.6,379.2,347.5,493,404.8,618.9c29.9,65.6,91.5,106,132.7,163.1
				c33.4,46.3,20.8,105.5,7,157.5c-12.4,46.8-34.4,90.8-66.5,127.2c-52.3,59.1-124.8,90.7-197.3,117.5
				c-42,15.5-122.3,33.5-130.1,87.5c-5.2,36.2,21.4,73.6,41.4,100.9c54.4,74.3,123.9,138.1,191.1,200.4"/>
			<path class="st0" d="M512.6,305.1C432,373.3,322.3,476.2,367.4,593.8c24.8,64.7,82.7,105.9,119,162.9c29.6,46.4,17,106,4,156.5
				c-11.3,44.1-30.5,86.1-58.3,122.2c-46.5,60.4-112.2,97.6-178.9,131.6c-43.3,22.1-109.9,48.4-117.1,103.9
				c-4.8,36.7,16.1,73.7,35.2,103.3c47.4,73.9,111.7,137.3,173.6,198.8"/>
			<path class="st0" d="M457.7,293.6c-77,67.9-170.9,164.5-129.5,276.4c21.9,59,71.4,99.9,101.9,153.5
				c26.1,45.7,15.2,101.7,4.3,150.8c-10.1,45.6-27.7,89.4-53.7,128.3c-40.3,60.3-98,102.6-156.7,143.6
				c-43.2,30.2-97.9,65.1-103.9,122.6c-4.1,38.9,13.8,77.7,32.6,110.5c40.9,71.5,97.9,133.8,153.7,193.7"/>
			<path class="st0" d="M398.2,275.7c-70.8,66.2-148.6,155.1-114.9,259.1c18.6,57.4,62.9,99.9,89.1,153.2
				c22.5,45.8,12.3,101.9,2.7,150.1c-8.8,44.2-23.9,87-45.8,126.5c-34.3,61.8-84.6,110.1-135.2,158.3c-41.4,39.4-86.4,83.5-90.5,144
				c-2.8,41.4,12.3,82,30.7,118.4c34.8,68.7,84.3,129.6,133.9,188"/>
			<path class="st0" d="M335.9,253.4C270.7,319.2,209,402,237.2,499.2c16,55.2,54.7,99,76.2,151.6c18.2,44.5,9.9,96.9,2.4,143.1
				c-7.4,45.6-20.4,90.1-39.4,132.2c-28.9,63.8-71.8,118-114.1,173.2c-37.2,48.7-72.8,101-75.5,164.3
				c-4.8,114.7,77.8,223.5,143.1,309.6"/>
			<path class="st0" d="M272.5,228.8C214,294.3,168,371,190.1,461.3c13.1,53.5,45.9,98.7,63.4,150.5c15.5,45.8,8.4,98,2.1,145.1
				c-5.9,43.5-16.1,86.4-30.7,127.8c-24.1,68.4-60.9,130.4-95.5,193.7C97.9,1135.6,71,1195.6,69.9,1262
				c-1.9,113.6,61.2,219.7,121.7,311.1"/>
			<path class="st0" d="M209.7,203.9c-49.9,64.7-82.4,136.4-65.9,219.1c10.7,53.6,38.3,101.5,51.8,154.1
				c11.7,45.5,6.3,95.4,1.5,141.6c-4.6,44.3-12.8,88.2-24.3,131.2c-18.9,70.6-47.5,137.6-73.5,205.6c-25,65.5-45.5,132.8-45.8,203.5
				c-0.5,112.3,46.1,217.8,99.7,314.1"/>
			<path class="st0" d="M149.4,181c-40.9,65.2-61.2,134.4-48.7,211.3c8.5,52,29,100.9,38.8,152.5c8.5,44.5,5.1,91.4,1.9,136.4
				c-3.2,45-9.1,89.7-17.4,134c-13.8,73.9-34.7,146-53.1,218.8c-18.7,73.8-33.5,148.7-33,225.2c0.8,109.6,32.9,214.5,77,314"/>
			<path class="st0" d="M93.1,161.9c-32.2,71-40.8,143.1-29.7,220c8.3,57.8,25,114.6,27,173.2c4,111.6-9.5,223.9-26.2,333.9
				c-14.9,97.8-33,195.4-38.8,294.4c-7.8,133,11,263,51.2,389.9"/>
			<path class="st0" d="M42.8,148.9C10.6,278.8,39.2,404.4,42,535.1c2.4,111.7-4.4,223.7-12.2,335c-16.5,235.7-32,468.7,8.5,703.1"
				/>
		</g>
	</g>
</g>
</svg>
